<svg xmlns="http://www.w3.org/2000/svg" xmlns:xlink="http://www.w3.org/1999/xlink" width="187" zoomAndPan="magnify" viewBox="0 0 375 374.999991" height="100" preserveAspectRatio="xMidYMid meet" version="1.0"><defs><g/></defs><g fill="#000000" fill-opacity="1"><g transform="translate(22.327996, 196.798081)"><g><path d="M 4.359375 0 L 4.359375 -62.4375 L 17.203125 -62.4375 L 17.203125 -33.328125 L 17.359375 -33.328125 C 20.691406 -36.671875 24.25 -38.34375 28.03125 -38.34375 C 29.863281 -38.34375 31.6875 -38.097656 33.5 -37.609375 C 35.320312 -37.128906 37.066406 -36.378906 38.734375 -35.359375 C 40.398438 -34.347656 41.753906 -32.910156 42.796875 -31.046875 C 43.835938 -29.179688 44.359375 -27.015625 44.359375 -24.546875 L 44.359375 0 L 31.515625 0 L 31.515625 -21.0625 C 31.515625 -23 30.894531 -24.691406 29.65625 -26.140625 C 28.425781 -27.585938 26.816406 -28.3125 24.828125 -28.3125 C 22.890625 -28.3125 21.132812 -27.5625 19.5625 -26.0625 C 17.988281 -24.5625 17.203125 -22.894531 17.203125 -21.0625 L 17.203125 0 Z M 4.359375 0 "/></g></g></g><g fill="#000000" fill-opacity="1"><g transform="translate(64.142007, 196.798081)"><g><path d="M 13.796875 -37.25 L 22.875 -16.984375 L 31.953125 -37.25 L 47.203125 -37.25 L 27.234375 0 L 18.515625 0 L -1.453125 -37.25 Z M 13.796875 -37.25 "/></g></g></g><g fill="#000000" fill-opacity="1"><g transform="translate(103.705507, 196.798081)"><g><path d="M 4.359375 0 L 4.359375 -37.25 L 17.203125 -37.25 L 17.203125 -33.328125 L 17.359375 -33.328125 C 20.691406 -36.671875 24.25 -38.34375 28.03125 -38.34375 C 29.863281 -38.34375 31.6875 -38.097656 33.5 -37.609375 C 35.320312 -37.128906 37.066406 -36.378906 38.734375 -35.359375 C 40.398438 -34.347656 41.753906 -32.910156 42.796875 -31.046875 C 43.835938 -29.179688 44.359375 -27.015625 44.359375 -24.546875 L 44.359375 0 L 31.515625 0 L 31.515625 -21.0625 C 31.515625 -23 30.894531 -24.691406 29.65625 -26.140625 C 28.425781 -27.585938 26.816406 -28.3125 24.828125 -28.3125 C 22.890625 -28.3125 21.132812 -27.5625 19.5625 -26.0625 C 17.988281 -24.5625 17.203125 -22.894531 17.203125 -21.0625 L 17.203125 0 Z M 4.359375 0 "/></g></g></g><g fill="#000000" fill-opacity="1"><g transform="translate(145.519518, 196.798081)"><g><path d="M 2.6875 9.15625 L 13.21875 4 C 15.15625 7.1875 18.519531 8.78125 23.3125 8.78125 C 25.53125 8.78125 27.597656 8.066406 29.515625 6.640625 C 31.429688 5.210938 32.390625 3.023438 32.390625 0.078125 L 32.390625 -2.6875 C 30.109375 -0.164062 26.039062 1.09375 20.1875 1.09375 C 14.8125 1.09375 10.378906 -0.804688 6.890625 -4.609375 C 3.410156 -8.410156 1.671875 -13.066406 1.671875 -18.578125 C 1.671875 -24.097656 3.410156 -28.769531 6.890625 -32.59375 C 10.378906 -36.425781 14.8125 -38.34375 20.1875 -38.34375 C 24.976562 -38.34375 28.972656 -36.863281 32.171875 -33.90625 L 32.390625 -33.90625 L 32.390625 -37.25 L 45.234375 -37.25 L 45.234375 1.015625 C 45.234375 7.066406 43.222656 11.738281 39.203125 15.03125 C 35.191406 18.320312 29.894531 19.96875 23.3125 19.96875 C 12.65625 19.96875 5.78125 16.363281 2.6875 9.15625 Z M 17.828125 -24.90625 C 16.160156 -23.257812 15.328125 -21.148438 15.328125 -18.578125 C 15.328125 -16.015625 16.125 -13.921875 17.71875 -12.296875 C 19.3125 -10.679688 21.414062 -9.875 24.03125 -9.875 C 26.550781 -9.875 28.617188 -10.695312 30.234375 -12.34375 C 31.859375 -13.988281 32.671875 -16.070312 32.671875 -18.59375 C 32.671875 -21.15625 31.835938 -23.257812 30.171875 -24.90625 C 28.503906 -26.550781 26.457031 -27.375 24.03125 -27.375 C 21.5625 -27.375 19.492188 -26.550781 17.828125 -24.90625 Z M 17.828125 -24.90625 "/></g></g></g><g fill="#000000" fill-opacity="1"><g transform="translate(188.930661, 196.798081)"><g><path d="M 16.484375 -37.25 L 16.484375 -19.53125 C 16.484375 -15.851562 17.039062 -13.238281 18.15625 -11.6875 C 19.269531 -10.132812 21.15625 -9.359375 23.8125 -9.359375 C 26.476562 -9.359375 28.367188 -10.132812 29.484375 -11.6875 C 30.597656 -13.238281 31.15625 -15.851562 31.15625 -19.53125 L 31.15625 -37.25 L 44 -37.25 L 44 -16.40625 C 44 -10.207031 42.390625 -5.738281 39.171875 -3 C 35.953125 -0.269531 30.832031 1.09375 23.8125 1.09375 C 16.789062 1.09375 11.671875 -0.269531 8.453125 -3 C 5.234375 -5.738281 3.625 -10.207031 3.625 -16.40625 L 3.625 -37.25 Z M 16.484375 -37.25 "/></g></g></g><g fill="#000000" fill-opacity="1"><g transform="translate(230.381692, 196.798081)"><g><path d="M 32.609375 -37.25 L 47.40625 -37.25 L 18.15625 18.875 L 3.34375 18.875 L 16.1875 -5.8125 L -1.453125 -37.25 L 13.359375 -37.25 L 23.75 -18.15625 Z M 32.609375 -37.25 "/></g></g></g><g fill="#000000" fill-opacity="1"><g transform="translate(270.16299, 196.798081)"><g><path d="M 42.046875 -16.84375 L 15.03125 -16.84375 C 15.03125 -14.226562 15.875 -12.289062 17.5625 -11.03125 C 19.257812 -9.78125 21.101562 -9.15625 23.09375 -9.15625 C 25.175781 -9.15625 26.820312 -9.429688 28.03125 -9.984375 C 29.238281 -10.535156 30.617188 -11.632812 32.171875 -13.28125 L 41.453125 -8.640625 C 37.585938 -2.148438 31.148438 1.09375 22.140625 1.09375 C 16.523438 1.09375 11.707031 -0.828125 7.6875 -4.671875 C 3.675781 -8.523438 1.671875 -13.160156 1.671875 -18.578125 C 1.671875 -24.003906 3.675781 -28.65625 7.6875 -32.53125 C 11.707031 -36.40625 16.523438 -38.34375 22.140625 -38.34375 C 28.046875 -38.34375 32.847656 -36.632812 36.546875 -33.21875 C 40.253906 -29.800781 42.109375 -24.925781 42.109375 -18.59375 C 42.109375 -17.71875 42.085938 -17.132812 42.046875 -16.84375 Z M 15.390625 -23.96875 L 29.546875 -23.96875 C 29.253906 -25.894531 28.488281 -27.378906 27.25 -28.421875 C 26.019531 -29.460938 24.441406 -29.984375 22.515625 -29.984375 C 20.378906 -29.984375 18.679688 -29.425781 17.421875 -28.3125 C 16.160156 -27.195312 15.484375 -25.75 15.390625 -23.96875 Z M 15.390625 -23.96875 "/></g></g></g><g fill="#000000" fill-opacity="1"><g transform="translate(307.766378, 196.798081)"><g><path d="M 4.359375 0 L 4.359375 -37.25 L 17.203125 -37.25 L 17.203125 -33.328125 L 17.359375 -33.328125 C 20.691406 -36.671875 24.25 -38.34375 28.03125 -38.34375 C 29.863281 -38.34375 31.6875 -38.097656 33.5 -37.609375 C 35.320312 -37.128906 37.066406 -36.378906 38.734375 -35.359375 C 40.398438 -34.347656 41.753906 -32.910156 42.796875 -31.046875 C 43.835938 -29.179688 44.359375 -27.015625 44.359375 -24.546875 L 44.359375 0 L 31.515625 0 L 31.515625 -21.0625 C 31.515625 -23 30.894531 -24.691406 29.65625 -26.140625 C 28.425781 -27.585938 26.816406 -28.3125 24.828125 -28.3125 C 22.890625 -28.3125 21.132812 -27.5625 19.5625 -26.0625 C 17.988281 -24.5625 17.203125 -22.894531 17.203125 -21.0625 L 17.203125 0 Z M 4.359375 0 "/></g></g></g><path stroke-linecap="butt" transform="matrix(1.016694, 0, 0, 1.016694, 0.0000045, 213.57176)" fill="none" stroke-linejoin="miter" d="M -0.00000442611 5.001003 L 84.434185 5.001003 " stroke="#292929" stroke-width="10" stroke-opacity="1" stroke-miterlimit="4"/><path stroke-linecap="butt" transform="matrix(0, 1.016694, -1.016694, 0, 10.161735, 136.85378)" fill="none" stroke-linejoin="miter" d="M 0.0016612 5.000137 L 82.464848 5.000137 " stroke="#292929" stroke-width="10" stroke-opacity="1" stroke-miterlimit="4"/><path stroke-linecap="butt" transform="matrix(-1.016694, 0, 0, -1.016694, 374.997167, 144.032057)" fill="none" stroke-linejoin="miter" d="M 0.0010557 4.999378 L 84.431403 4.999378 " stroke="#292929" stroke-width="10" stroke-opacity="1" stroke-miterlimit="4"/><path stroke-linecap="butt" transform="matrix(0, -1.016694, 1.016694, 0, 364.835431, 220.75002)" fill="none" stroke-linejoin="miter" d="M 0.0000195773 4.999082 L 82.463207 4.999082 " stroke="#292929" stroke-width="10" stroke-opacity="1" stroke-miterlimit="4"/></svg>